<svg width="100" height="100" viewBox="0 0 100 100" fill="none" xmlns="http://www.w3.org/2000/svg">
  <!-- Hoja moderna 1 - Forma geométrica -->
  <path d="M25 25 Q35 15 45 25 Q35 35 25 25" fill="rgba(34, 197, 94, 0.08)" stroke="rgba(34, 197, 94, 0.15)" stroke-width="0.8"/>
  
  <!-- Hoja moderna 2 - Minimalista -->
  <path d="M75 75 Q85 65 95 75 Q85 85 75 75" fill="rgba(16, 185, 129, 0.06)" stroke="rgba(16, 185, 129, 0.12)" stroke-width="0.8"/>
  
  <!-- Forma abstracta de planta -->
  <circle cx="20" cy="80" r="4" fill="rgba(34, 197, 94, 0.05)" stroke="rgba(34, 197, 94, 0.1)" stroke-width="0.6"/>
  <circle cx="80" cy="20" r="3" fill="rgba(5, 150, 105, 0.04)" stroke="rgba(5, 150, 105, 0.08)" stroke-width="0.6"/>
  
  <!-- Líneas minimalistas como tallos -->
  <line x1="25" y1="25" x2="25" y2="35" stroke="rgba(34, 197, 94, 0.1)" stroke-width="1.2" stroke-linecap="round"/>
  <line x1="75" y1="75" x2="75" y2="85" stroke="rgba(16, 185, 129, 0.08)" stroke-width="1.2" stroke-linecap="round"/>
  
  <!-- Puntos decorativos modernos -->
  <circle cx="50" cy="50" r="1.5" fill="rgba(34, 197, 94, 0.1)"/>
  <circle cx="15" cy="15" r="1" fill="rgba(16, 185, 129, 0.08)"/>
  <circle cx="85" cy="85" r="1" fill="rgba(5, 150, 105, 0.06)"/>
  
  <!-- Forma geométrica moderna -->
  <path d="M60 30 L65 35 L60 40 L55 35 Z" fill="rgba(34, 197, 94, 0.04)" stroke="rgba(34, 197, 94, 0.08)" stroke-width="0.5"/>
  
  <!-- Hoja estilizada moderna -->
  <ellipse cx="40" cy="70" rx="6" ry="3" fill="rgba(16, 185, 129, 0.05)" stroke="rgba(16, 185, 129, 0.1)" stroke-width="0.5" transform="rotate(30 40 70)"/>
</svg>
