<svg width="120" height="120" viewBox="0 0 120 120" fill="none" xmlns="http://www.w3.org/2000/svg">
  <!-- Hojas grandes con verde intenso -->
  <path d="M20 30 Q10 15 20 5 Q30 15 20 30 Q15 22 20 30" fill="rgba(34, 197, 94, 0.25)" stroke="rgba(34, 197, 94, 0.4)" stroke-width="1"/>
  <path d="M100 90 Q90 75 100 65 Q110 75 100 90 Q95 82 100 90" fill="rgba(16, 185, 129, 0.28)" stroke="rgba(16, 185, 129, 0.45)" stroke-width="1"/>
  
  <!-- Hojas medianas distribuidas -->
  <path d="M60 20 Q50 10 60 0 Q70 10 60 20" fill="rgba(5, 150, 105, 0.22)" stroke="rgba(5, 150, 105, 0.35)" stroke-width="0.8"/>
  <path d="M40 100 Q30 90 40 80 Q50 90 40 100" fill="rgba(34, 197, 94, 0.2)" stroke="rgba(34, 197, 94, 0.35)" stroke-width="0.8"/>
  <path d="M80 50 Q70 40 80 30 Q90 40 80 50" fill="rgba(16, 185, 129, 0.24)" stroke="rgba(16, 185, 129, 0.38)" stroke-width="0.8"/>
  
  <!-- Hojas pequeñas abundantes -->
  <path d="M15 70 Q10 65 15 60 Q20 65 15 70" fill="rgba(34, 197, 94, 0.18)" stroke="rgba(34, 197, 94, 0.3)" stroke-width="0.6"/>
  <path d="M105 25 Q100 20 105 15 Q110 20 105 25" fill="rgba(5, 150, 105, 0.16)" stroke="rgba(5, 150, 105, 0.28)" stroke-width="0.6"/>
  <path d="M35 50 Q30 45 35 40 Q40 45 35 50" fill="rgba(16, 185, 129, 0.17)" stroke="rgba(16, 185, 129, 0.29)" stroke-width="0.6"/>
  <path d="M85 105 Q80 100 85 95 Q90 100 85 105" fill="rgba(34, 197, 94, 0.19)" stroke="rgba(34, 197, 94, 0.32)" stroke-width="0.6"/>
  
  <!-- Círculos como frutos o flores -->
  <circle cx="25" cy="80" r="4" fill="rgba(34, 197, 94, 0.15)" stroke="rgba(34, 197, 94, 0.25)" stroke-width="0.8"/>
  <circle cx="95" cy="40" r="3" fill="rgba(16, 185, 129, 0.13)" stroke="rgba(16, 185, 129, 0.23)" stroke-width="0.8"/>
  <circle cx="55" cy="75" r="2.5" fill="rgba(5, 150, 105, 0.12)" stroke="rgba(5, 150, 105, 0.22)" stroke-width="0.8"/>
  <circle cx="75" cy="15" r="2" fill="rgba(34, 197, 94, 0.14)" stroke="rgba(34, 197, 94, 0.24)" stroke-width="0.8"/>
  
  <!-- Tallos más gruesos y visibles -->
  <line x1="20" y1="30" x2="20" y2="50" stroke="rgba(34, 197, 94, 0.3)" stroke-width="2"/>
  <line x1="100" y1="90" x2="100" y2="110" stroke="rgba(16, 185, 129, 0.32)" stroke-width="2"/>
  <line x1="60" y1="20" x2="60" y2="40" stroke="rgba(5, 150, 105, 0.28)" stroke-width="1.8"/>
  <line x1="40" y1="100" x2="40" y2="120" stroke="rgba(34, 197, 94, 0.25)" stroke-width="1.8"/>
  <line x1="80" y1="50" x2="80" y2="70" stroke="rgba(16, 185, 129, 0.29)" stroke-width="1.8"/>
  
  <!-- Ramas con múltiples hojas -->
  <path d="M50 60 Q45 55 50 50 Q55 55 50 60" fill="rgba(34, 197, 94, 0.16)" stroke="rgba(34, 197, 94, 0.28)" stroke-width="0.7"/>
  <path d="M55 65 Q50 60 55 55 Q60 60 55 65" fill="rgba(16, 185, 129, 0.15)" stroke="rgba(16, 185, 129, 0.27)" stroke-width="0.7"/>
  <path d="M45 65 Q40 60 45 55 Q50 60 45 65" fill="rgba(5, 150, 105, 0.14)" stroke="rgba(5, 150, 105, 0.26)" stroke-width="0.7"/>
  
  <!-- Hojas alargadas para variedad -->
  <ellipse cx="10" cy="45" rx="5" ry="12" fill="rgba(34, 197, 94, 0.17)" stroke="rgba(34, 197, 94, 0.29)" stroke-width="0.6" transform="rotate(15 10 45)"/>
  <ellipse cx="110" cy="70" rx="4" ry="10" fill="rgba(16, 185, 129, 0.16)" stroke="rgba(16, 185, 129, 0.28)" stroke-width="0.6" transform="rotate(-20 110 70)"/>
  <ellipse cx="70" cy="100" rx="6" ry="8" fill="rgba(5, 150, 105, 0.15)" stroke="rgba(5, 150, 105, 0.27)" stroke-width="0.6" transform="rotate(45 70 100)"/>
  
  <!-- Puntos decorativos como semillas -->
  <circle cx="30" cy="15" r="1.5" fill="rgba(34, 197, 94, 0.2)"/>
  <circle cx="90" cy="25" r="1.2" fill="rgba(16, 185, 129, 0.18)"/>
  <circle cx="15" cy="95" r="1.8" fill="rgba(5, 150, 105, 0.16)"/>
  <circle cx="65" cy="35" r="1.3" fill="rgba(34, 197, 94, 0.19)"/>
  <circle cx="45" cy="85" r="1.4" fill="rgba(16, 185, 129, 0.17)"/>
  <circle cx="85" cy="80" r="1.1" fill="rgba(5, 150, 105, 0.15)"/>
</svg>
