<svg width="140" height="140" viewBox="0 0 140 140" fill="none" xmlns="http://www.w3.org/2000/svg">
  <!-- Flores grandes con pétalos -->
  <g transform="translate(25,25)">
    <!-- Flor 1 -->
    <circle cx="0" cy="-8" r="4" fill="rgba(239, 68, 68, 0.15)" stroke="rgba(239, 68, 68, 0.25)" stroke-width="0.8"/>
    <circle cx="8" cy="0" r="4" fill="rgba(239, 68, 68, 0.15)" stroke="rgba(239, 68, 68, 0.25)" stroke-width="0.8"/>
    <circle cx="0" cy="8" r="4" fill="rgba(239, 68, 68, 0.15)" stroke="rgba(239, 68, 68, 0.25)" stroke-width="0.8"/>
    <circle cx="-8" cy="0" r="4" fill="rgba(239, 68, 68, 0.15)" stroke="rgba(239, 68, 68, 0.25)" stroke-width="0.8"/>
    <circle cx="0" cy="0" r="3" fill="rgba(251, 191, 36, 0.2)" stroke="rgba(251, 191, 36, 0.3)" stroke-width="0.6"/>
  </g>
  
  <!-- Hojas grandes variadas -->
  <path d="M70 20 Q80 10 90 20 Q80 30 70 20" fill="rgba(34, 197, 94, 0.22)" stroke="rgba(34, 197, 94, 0.35)" stroke-width="1"/>
  <path d="M120 80 Q110 70 120 60 Q130 70 120 80" fill="rgba(16, 185, 129, 0.24)" stroke="rgba(16, 185, 129, 0.38)" stroke-width="1"/>
  <path d="M20 100 Q30 90 40 100 Q30 110 20 100" fill="rgba(5, 150, 105, 0.20)" stroke="rgba(5, 150, 105, 0.32)" stroke-width="1"/>
  
  <!-- Hojas dentadas -->
  <path d="M100 30 L105 25 L110 30 L115 25 L120 30 Q115 40 110 35 Q105 40 100 35 Q95 30 100 30" fill="rgba(34, 197, 94, 0.18)" stroke="rgba(34, 197, 94, 0.28)" stroke-width="0.8"/>
  
  <!-- Ramas con múltiples hojas pequeñas -->
  <g transform="translate(60,90)">
    <line x1="0" y1="0" x2="20" y2="-10" stroke="rgba(101, 163, 13, 0.3)" stroke-width="1.5"/>
    <ellipse cx="5" cy="-2" rx="3" ry="6" fill="rgba(34, 197, 94, 0.16)" stroke="rgba(34, 197, 94, 0.26)" stroke-width="0.6" transform="rotate(30 5 -2)"/>
    <ellipse cx="10" cy="-4" rx="2.5" ry="5" fill="rgba(16, 185, 129, 0.14)" stroke="rgba(16, 185, 129, 0.24)" stroke-width="0.6" transform="rotate(-20 10 -4)"/>
    <ellipse cx="15" cy="-7" rx="3" ry="4" fill="rgba(5, 150, 105, 0.15)" stroke="rgba(5, 150, 105, 0.25)" stroke-width="0.6" transform="rotate(45 15 -7)"/>
  </g>
  
  <!-- Flores pequeñas dispersas -->
  <circle cx="45" cy="45" r="3" fill="rgba(147, 51, 234, 0.12)" stroke="rgba(147, 51, 234, 0.22)" stroke-width="0.8"/>
  <circle cx="48" cy="42" r="1.5" fill="rgba(251, 191, 36, 0.15)"/>
  <circle cx="42" cy="48" r="1.5" fill="rgba(251, 191, 36, 0.15)"/>
  
  <circle cx="95" cy="110" r="2.5" fill="rgba(236, 72, 153, 0.14)" stroke="rgba(236, 72, 153, 0.24)" stroke-width="0.8"/>
  <circle cx="98" cy="108" r="1.2" fill="rgba(251, 191, 36, 0.16)"/>
  <circle cx="92" cy="112" r="1.2" fill="rgba(251, 191, 36, 0.16)"/>
  
  <!-- Hojas trifoliadas (como tréboles) -->
  <g transform="translate(15,70)">
    <circle cx="0" cy="-4" r="3" fill="rgba(34, 197, 94, 0.14)" stroke="rgba(34, 197, 94, 0.24)" stroke-width="0.6"/>
    <circle cx="3" cy="2" r="3" fill="rgba(34, 197, 94, 0.14)" stroke="rgba(34, 197, 94, 0.24)" stroke-width="0.6"/>
    <circle cx="-3" cy="2" r="3" fill="rgba(34, 197, 94, 0.14)" stroke="rgba(34, 197, 94, 0.24)" stroke-width="0.6"/>
    <line x1="0" y1="0" x2="0" y2="8" stroke="rgba(101, 163, 13, 0.25)" stroke-width="1.2"/>
  </g>
  
  <!-- Capullos de flores -->
  <ellipse cx="130" cy="40" rx="3" ry="7" fill="rgba(239, 68, 68, 0.12)" stroke="rgba(239, 68, 68, 0.22)" stroke-width="0.8" transform="rotate(15 130 40)"/>
  <ellipse cx="10" cy="130" rx="2.5" ry="6" fill="rgba(147, 51, 234, 0.11)" stroke="rgba(147, 51, 234, 0.21)" stroke-width="0.8" transform="rotate(-25 10 130)"/>
  
  <!-- Helechos estilizados -->
  <g transform="translate(80,60)">
    <path d="M0 0 Q5 -5 10 0 Q15 5 20 0" fill="none" stroke="rgba(34, 197, 94, 0.2)" stroke-width="1.2"/>
    <path d="M2 -1 Q4 -3 6 -1" fill="none" stroke="rgba(34, 197, 94, 0.15)" stroke-width="0.8"/>
    <path d="M8 -1 Q10 -3 12 -1" fill="none" stroke="rgba(34, 197, 94, 0.15)" stroke-width="0.8"/>
    <path d="M14 -1 Q16 -3 18 -1" fill="none" stroke="rgba(34, 197, 94, 0.15)" stroke-width="0.8"/>
  </g>
  
  <!-- Bayas pequeñas -->
  <circle cx="55" cy="15" r="1.5" fill="rgba(239, 68, 68, 0.18)"/>
  <circle cx="58" cy="17" r="1.2" fill="rgba(239, 68, 68, 0.16)"/>
  <circle cx="52" cy="18" r="1.3" fill="rgba(239, 68, 68, 0.17)"/>
  
  <circle cx="105" cy="125" r="1.4" fill="rgba(147, 51, 234, 0.16)"/>
  <circle cx="108" cy="123" r="1.1" fill="rgba(147, 51, 234, 0.14)"/>
  <circle cx="102" cy="127" r="1.2" fill="rgba(147, 51, 234, 0.15)"/>
  
  <!-- Tallos principales -->
  <line x1="25" y1="40" x2="25" y2="65" stroke="rgba(101, 163, 13, 0.25)" stroke-width="2"/>
  <line x1="80" y1="20" x2="80" y2="45" stroke="rgba(101, 163, 13, 0.27)" stroke-width="1.8"/>
  <line x1="120" y1="95" x2="120" y2="120" stroke="rgba(101, 163, 13, 0.23)" stroke-width="1.8"/>
  <line x1="30" y1="100" x2="30" y2="125" stroke="rgba(101, 163, 13, 0.24)" stroke-width="1.6"/>
  
  <!-- Hojas en forma de corazón -->
  <path d="M50 75 Q45 70 40 75 Q40 80 45 85 Q50 80 55 85 Q55 80 50 75" fill="rgba(34, 197, 94, 0.16)" stroke="rgba(34, 197, 94, 0.26)" stroke-width="0.8"/>
  
  <!-- Semillas y puntos decorativos -->
  <circle cx="35" cy="35" r="1" fill="rgba(101, 163, 13, 0.2)"/>
  <circle cx="65" cy="65" r="1.2" fill="rgba(101, 163, 13, 0.18)"/>
  <circle cx="85" cy="85" r="0.8" fill="rgba(101, 163, 13, 0.19)"/>
  <circle cx="115" cy="115" r="1.1" fill="rgba(101, 163, 13, 0.17)"/>
  <circle cx="15" cy="115" r="1.3" fill="rgba(101, 163, 13, 0.21)"/>
  
  <!-- Brotes pequeños -->
  <g transform="translate(110,50)">
    <circle cx="0" cy="0" r="1.5" fill="rgba(34, 197, 94, 0.12)"/>
    <line x1="0" y1="0" x2="0" y2="-5" stroke="rgba(101, 163, 13, 0.2)" stroke-width="1"/>
    <circle cx="0" cy="-5" r="1" fill="rgba(34, 197, 94, 0.1)"/>
  </g>
  
  <g transform="translate(40,120)">
    <circle cx="0" cy="0" r="1.2" fill="rgba(16, 185, 129, 0.11)"/>
    <line x1="0" y1="0" x2="0" y2="-4" stroke="rgba(101, 163, 13, 0.18)" stroke-width="0.8"/>
    <circle cx="0" cy="-4" r="0.8" fill="rgba(16, 185, 129, 0.09)"/>
  </g>
</svg>
